<?xml version="1.0" encoding="UTF-8"?>
<svg version="1.1" xmlns="http://www.w3.org/2000/svg" width="418" height="380">
<path d="M0 0 C2.74609375 2.22265625 2.74609375 2.22265625 5.4375 5.0625 C6.15244629 5.80741699 6.15244629 5.80741699 6.88183594 6.56738281 C10.15939675 10.00915453 13.30902248 13.55856686 16.390625 17.17578125 C18.0194157 19.0220076 19.7303823 20.72660855 21.5 22.4375 C31.89392597 32.80780341 31.89392597 32.80780341 32.1875 38.875 C30.8857233 42.30072816 30.31142973 43.47853229 27 45 C24.0625 45.5 24.0625 45.5 21 45 C19.27515781 43.39361431 17.61741342 41.71450558 16 40 C15.05023841 39.04352342 14.09706013 38.09042833 13.140625 37.140625 C10.09375 34.09375 7.046875 31.046875 4 28 C4 112.15 4 196.3 4 283 C15.88 282.505 15.88 282.505 28 282 C27.98839844 279.17824219 27.97679688 276.35648437 27.96484375 273.44921875 C27.90079085 253.84933542 27.90800374 234.24760826 28.26345825 214.65029907 C28.29611057 212.76087408 28.32369143 210.87135453 28.34616089 208.98178101 C28.37905835 206.34803154 28.43093271 203.71534661 28.48828125 201.08203125 C28.49467621 200.30288361 28.50107117 199.52373596 28.50765991 198.72097778 C28.65233374 193.50233892 28.65233374 193.50233892 30.34448242 191.05737305 C33.23611551 189.21049753 35.77891243 188.87032904 39.11669922 188.83886719 C39.94120575 188.82925964 40.76571228 188.8196521 41.61520386 188.80975342 C42.50273346 188.80550354 43.39026306 188.80125366 44.3046875 188.796875 C45.22081818 188.79117493 46.13694885 188.78547485 47.08084106 188.77960205 C49.01921434 188.77015673 50.95760364 188.76361993 52.89599609 188.75976562 C55.85673102 188.75005989 58.81677173 188.71903214 61.77734375 188.6875 C63.66145422 188.6809697 65.54556964 188.67571934 67.4296875 188.671875 C68.31316864 188.6595282 69.19664978 188.6471814 70.10690308 188.63446045 C74.82952021 188.65151974 78.29599459 188.72519878 82 192 C84.33307896 196.36865099 84.27124135 200.63053269 84.22705078 205.4621582 C84.22734283 206.3016954 84.22763489 207.1412326 84.22793579 208.00621033 C84.22654647 210.77117376 84.21100402 213.5358651 84.1953125 216.30078125 C84.19158096 218.22177483 84.18873465 220.14277031 84.18673706 222.06376648 C84.17911175 227.11244997 84.15947269 232.16101785 84.1373291 237.20965576 C84.11684695 242.36436397 84.10773027 247.51909092 84.09765625 252.67382812 C84.07622577 262.78261097 84.04105257 272.89127777 84 283 C89.61 283 95.22 283 101 283 C100.98889694 281.3072847 100.97779388 279.6145694 100.96635437 277.87055969 C100.86508772 261.93457702 100.78978654 245.99869407 100.74093914 230.06246662 C100.71515738 221.8690683 100.68000769 213.67591017 100.62280273 205.48266602 C100.57296654 198.34141718 100.54070877 191.20034228 100.52955753 184.05892438 C100.52303901 180.27749581 100.50772019 176.49656486 100.47134972 172.71529579 C100.43738619 169.15539028 100.42694734 165.59618686 100.43446159 162.03613472 C100.43243228 160.10827806 100.4055387 158.18049772 100.37789917 156.25283813 C100.42815025 147.83638927 100.42815025 147.83638927 103.24005127 143.72369385 C106.06808789 141.9574765 107.43924087 141.37287858 110.72680664 141.36889648 C111.63447281 141.35636337 112.54213898 141.34383026 113.47731018 141.33091736 C114.44514938 141.34417557 115.41298859 141.35743378 116.41015625 141.37109375 C117.41461288 141.36868179 118.41906952 141.36626984 119.45396423 141.36378479 C121.57294674 141.36476248 123.69195504 141.37813733 125.81079102 141.40307617 C129.05508031 141.43742145 132.29665099 141.42372126 135.54101562 141.40429688 C137.6015741 141.4111944 139.66212554 141.42086594 141.72265625 141.43359375 C142.69251968 141.42863388 143.66238312 141.42367401 144.66163635 141.41856384 C151.35178989 141.53569581 151.35178989 141.53569581 154.57983398 143.84790039 C156.93985776 147.42424723 157.12416281 150.26995964 157.12025452 154.44792175 C157.12231651 156.14535271 157.12231651 156.14535271 157.12442017 157.8770752 C157.12082489 159.11928833 157.11722961 160.36150146 157.11352539 161.64135742 C157.11367142 162.94877396 157.11381744 164.25619049 157.1139679 165.60322571 C157.11425515 169.18972424 157.10837007 172.77618942 157.10139394 176.3626802 C157.09514839 180.1103001 157.09455565 183.85792074 157.09336853 187.60554504 C157.09025876 194.70281237 157.08205014 201.80006431 157.07201904 208.89732486 C157.06084691 216.97704511 157.05534468 225.05676609 157.05032361 233.13649213 C157.03986724 249.75767068 157.02207353 266.37883277 157 283 C162.61 283 168.22 283 174 283 C173.99308655 281.17476161 173.99308655 281.17476161 173.98603344 279.31264973 C173.87776893 250.43452682 173.79530987 221.55640745 173.74467335 192.67812859 C173.73841974 189.12453003 173.73194814 185.5709319 173.7253418 182.01733398 C173.72337447 180.95613776 173.72337447 180.95613776 173.7213674 179.87350323 C173.69960455 168.41489637 173.66017825 156.95641479 173.61423602 145.49788228 C173.5674957 133.74234695 173.53970976 121.98687729 173.52955753 110.23125285 C173.5230298 103.62740482 173.50765054 97.02384106 173.47134972 90.420084 C173.43747511 84.20751001 173.42692998 77.99533808 173.43446159 71.78268051 C173.43308324 69.49976481 173.42310045 67.216836 173.40397263 64.93400002 C173.37916882 61.8217388 173.38504933 58.71100416 173.39872742 55.59870911 C173.37688111 54.2373233 173.37688111 54.2373233 173.35459346 52.84843475 C173.40791593 48.37320547 173.55051568 46.57425441 176.39532948 42.93976307 C179.13157422 40.90201339 180.27076567 40.37025329 183.61914062 40.35302734 C184.50355835 40.33726654 185.38797607 40.32150574 186.29919434 40.30526733 C187.24202271 40.31538849 188.18485107 40.32550964 189.15625 40.3359375 C190.13613892 40.33115387 191.11602783 40.32637024 192.12561035 40.32144165 C194.19329436 40.31804559 196.26103228 40.32722737 198.32861328 40.34814453 C201.48982702 40.37491385 204.64749018 40.34838629 207.80859375 40.31640625 C209.82032032 40.3197104 211.83204469 40.32611674 213.84375 40.3359375 C214.78657837 40.32581635 215.72940674 40.31569519 216.70080566 40.30526733 C218.02743225 40.32890854 218.02743225 40.32890854 219.38085938 40.35302734 C220.5407135 40.35899429 220.5407135 40.35899429 221.72399902 40.36508179 C225.31921389 41.36801079 226.70883472 43.07284168 229 46 C229.72605526 49.199913 229.65374062 52.32908396 229.60127258 55.59870911 C229.60554471 56.57078314 229.60981683 57.54285717 229.61421841 58.544388 C229.62246012 61.80455487 229.59494282 65.06343781 229.56762695 68.32348633 C229.56621675 70.65916921 229.56700793 72.9948543 229.56983948 75.33053589 C229.57127608 81.67527237 229.54184608 88.01953775 229.50696969 94.36416459 C229.47890977 100.32175245 229.47385539 106.27932191 229.46871033 112.23696693 C229.45777061 124.03624073 229.4245053 135.83534158 229.37719727 147.63452148 C229.33129324 159.09545019 229.2959055 170.55633189 229.2746582 182.01733398 C229.27334459 182.72393832 229.27203097 183.43054265 229.27067754 184.15855924 C229.2641523 187.70343066 229.25783377 191.24830241 229.25161803 194.79317439 C229.19979511 224.1955611 229.11136666 253.59777871 229 283 C234.61 282.67 240.22 282.34 246 282 C246.00586624 279.73908005 246.01173248 277.4781601 246.01777649 275.14872742 C246.0743672 253.8847576 246.14740748 232.62089013 246.23571491 211.35702801 C246.28072116 200.42398224 246.32012461 189.49096939 246.34643555 178.55786133 C246.36937659 169.03092233 246.40273079 159.50408712 246.44870156 149.97723037 C246.47268644 144.93068852 246.49138064 139.8842498 246.49761391 134.83765221 C246.50364103 130.09097572 246.52355436 125.34456326 246.55427551 120.59798431 C246.56309396 118.85286349 246.5667705 117.10770821 246.56500816 115.36256599 C246.5633651 112.98547665 246.57997064 110.60920153 246.60127258 108.23222351 C246.59400122 107.18893883 246.59400122 107.18893883 246.58658296 106.1245777 C246.62832021 103.31547288 246.68807988 101.44068222 248.33742046 99.11048603 C251.24204057 97.17040438 253.81849778 96.87005629 257.20849609 96.83886719 C258.47528702 96.82445587 258.47528702 96.82445587 259.76766968 96.80975342 C260.67707306 96.80550354 261.58647644 96.80125366 262.5234375 96.796875 C263.93092758 96.78832489 263.93092758 96.78832489 265.36685181 96.77960205 C267.35230381 96.77015606 269.33777146 96.76361966 271.32324219 96.75976562 C274.35639864 96.75005952 277.38887756 96.71903214 280.421875 96.6875 C282.35155848 96.68096977 284.2812468 96.67571938 286.2109375 96.671875 C287.11629242 96.6595282 288.02164734 96.6471814 288.95443726 96.63446045 C293.7765849 96.65146939 297.11241349 96.80235062 301 100 C302.46846883 102.93693766 302.13367841 105.89321124 302.12025452 109.11196899 C302.12153615 110.22321673 302.12153615 110.22321673 302.12284368 111.35691392 C302.12449753 113.85206187 302.11897865 116.34714335 302.11352539 118.84228516 C302.11324347 120.6258087 302.11340134 122.40933236 302.1139679 124.19285583 C302.11425569 129.04589851 302.10836186 133.89891665 302.10139394 138.7519536 C302.09515741 143.81952828 302.09455636 148.88710347 302.09336853 153.9546814 C302.0902561 163.55588897 302.08204389 173.15708521 302.07201904 182.75828779 C302.06085517 193.6867825 302.05534676 204.61527775 302.05032361 215.54377675 C302.03986121 238.02919224 302.02151682 260.51459218 302 283 C321.305 282.505 321.305 282.505 341 282 C335.24678009 276.10103966 335.24678009 276.10103966 329.0625 270.6875 C326.81490133 268.84855563 325.81869785 267.78357271 325 265 C325.18583859 261.96463635 325.55948607 259.77737753 327.0625 257.125 C329.58040938 255.6629881 331.85530221 255.22321564 334.7578125 255.32421875 C339.62207547 256.7902771 342.68218263 261.3574852 346 265 C347.18885337 266.06384518 348.39680801 267.10682353 349.625 268.125 C353.85702165 271.8042678 357.95116032 275.62123993 362 279.5 C363.02601318 280.44383545 363.02601318 280.44383545 364.07275391 281.40673828 C367.26321103 284.50989635 368.83748952 286.20776139 369.75 290.65625 C368.80402253 294.87373289 367.11942009 296.06044084 364 299 C362.29121231 300.7196007 360.58289808 302.43967198 358.875 304.16015625 C357.41640529 305.62612092 355.9573319 307.09160728 354.49804688 308.55688477 C353.49845339 309.56152835 352.49975629 310.56706459 351.50195312 311.57348633 C350.0453625 313.042279 348.58550075 314.50775281 347.125 315.97265625 C346.26132812 316.84156494 345.39765625 317.71047363 344.5078125 318.60571289 C336.89099705 325.87772507 336.89099705 325.87772507 332 326 C328.51365399 324.37844371 327.15697806 323.23546708 325 320 C324.88051986 316.702348 325.43930963 314.70795162 327.49658203 312.11035156 C329.46124466 310.04630911 331.48703727 308.07748636 333.5625 306.125 C334.27341797 305.43664062 334.98433594 304.74828125 335.71679688 304.0390625 C337.46709328 302.34750087 339.22796828 300.66872942 341 299 C339.89774216 298.99853479 339.89774216 298.99853479 338.77321649 298.99703997 C295.25038406 298.93880681 251.72760184 298.86503958 208.20483126 298.77101372 C202.98258306 298.75974514 197.76033459 298.74860675 192.53808594 298.73754883 C191.49840124 298.73534514 190.45871654 298.73314146 189.38752624 298.730871 C172.53846836 298.69546896 155.68941052 298.67062125 138.8403292 298.64965298 C121.56013041 298.62791405 104.27998002 298.59488186 86.99982238 298.55129844 C76.33135609 298.52474878 65.66295015 298.50707784 54.99445245 298.50065396 C47.68523545 298.4954102 40.37609447 298.47922741 33.06691816 298.45433434 C28.84573009 298.44028454 24.6246782 298.43116145 20.40346527 298.43499184 C16.54192314 298.43838973 12.6806724 298.42810909 8.81919 298.40676448 C7.41940726 298.40147464 6.01959443 298.40128455 4.6198118 298.40660437 C2.72221706 298.41308363 0.82458511 298.39946702 -1.07296371 298.38476086 C-2.12858623 298.38286225 -3.18420875 298.38096365 -4.27181983 298.37900752 C-7.40266855 297.94406 -8.76023817 297.20189401 -11 295 C-11.94257885 292.17226344 -12.12894529 290.43633983 -12.1386652 287.50787067 C-12.14413964 286.5822811 -12.14961409 285.65669152 -12.15525442 284.70305377 C-12.15623253 283.68458195 -12.15721064 282.66611012 -12.15821838 281.61677551 C-12.16315636 280.53615442 -12.16809434 279.45553332 -12.17318195 278.34216613 C-12.18860105 274.70312863 -12.19692952 271.06410883 -12.20532227 267.42504883 C-12.21489732 264.82365258 -12.22490718 262.2222579 -12.23532104 259.62086487 C-12.25708958 254.01094616 -12.27523269 248.40102506 -12.29092598 242.7910862 C-12.31362117 234.68001837 -12.34176448 226.56897667 -12.37124526 218.457931 C-12.41892547 205.29886983 -12.46218849 192.13979798 -12.50268555 178.98071289 C-12.54203829 166.19652475 -12.58346398 153.4123461 -12.62768555 140.62817383 C-12.63040982 139.84039517 -12.63313409 139.0526165 -12.63594092 138.24096576 C-12.64962036 134.28898273 -12.66334064 130.33699985 -12.67708123 126.38501704 C-12.79105275 93.59003094 -12.89786062 60.79502512 -13 28 C-14.4232651 29.58064992 -15.84642077 31.16139838 -17.26953125 32.7421875 C-18.06206299 33.62245605 -18.85459473 34.50272461 -19.67114258 35.40966797 C-21.12964954 37.03193014 -22.58444117 38.65754894 -24.03369141 40.28808594 C-26.68335763 43.23111645 -28.21001532 44.81040368 -32.125 45.75 C-36.09100697 44.71538949 -37.64982791 43.3472148 -40 40 C-40.36571885 35.15422529 -38.92057036 32.56235266 -35.875 29 C-34.60188621 27.64894047 -33.31005307 26.31527241 -32 25 C-31.41476563 24.4121875 -30.82953125 23.824375 -30.2265625 23.21875 C-29.07094126 22.06835781 -27.91205247 20.92123915 -26.75 19.77734375 C-23.01656903 15.98557792 -19.58922005 11.90297165 -16.1796875 7.8203125 C-7.76002142 -2.13020196 -7.76002142 -2.13020196 0 0 Z " fill="#231F1F" transform="translate(40,42)"/>
<path d="M0 0 C8.25 0 16.5 0 25 0 C25 74.91 25 149.82 25 227 C16.75 227 8.5 227 0 227 C0 152.09 0 77.18 0 0 Z " fill="#62C3CE" transform="translate(229,98)"/>
<path d="M0 0 C8.25 0 16.5 0 25 0 C25 56.1 25 112.2 25 170 C16.75 170 8.5 170 0 170 C0 113.9 0 57.8 0 0 Z " fill="#F4AD47" transform="translate(302,155)"/>
<path d="M0 0 C8.25 0 16.5 0 25 0 C25 41.58 25 83.16 25 126 C16.75 126 8.5 126 0 126 C0 84.42 0 42.84 0 0 Z " fill="#F1AB4A" transform="translate(156,199)"/>
<path d="M0 0 C7.92 0 15.84 0 24 0 C24 25.74 24 51.48 24 78 C16.08 78 8.16 78 0 78 C0 52.26 0 26.52 0 0 Z " fill="#E45A50" transform="translate(84,247)"/>
<path d="M0 0 C8.25 0 16.5 0 25 0 C25 56.1 25 112.2 25 170 C16.75 170 8.5 170 0 170 C0 113.9 0 57.8 0 0 Z M3 1 C0.70698906 2.86432763 0.70698906 2.86432763 0.75390434 5.82296181 C0.75574793 7.03788496 0.75759151 8.25280811 0.75949097 9.50454712 C0.75778212 10.18004211 0.75607327 10.8555371 0.75431263 11.55150163 C0.75100603 13.82561913 0.7620404 16.09944463 0.77294922 18.37353516 C0.77351308 19.99942518 0.77319726 21.62531572 0.77206421 23.25120544 C0.77148872 27.67454396 0.78327468 32.09777472 0.79721212 36.52108812 C0.80968687 41.14022308 0.8108874 45.75936032 0.81326294 50.37850952 C0.81948731 59.12975234 0.83591103 67.88094539 0.85596192 76.63216627 C0.8782912 86.59332207 0.88930686 96.55448021 0.89935279 106.5156548 C0.92027646 127.0104651 0.95587228 147.50522767 1 168 C8.26 168 15.52 168 23 168 C23 112.89 23 57.78 23 1 C16.4 1 9.8 1 3 1 Z " fill="#DEA659" transform="translate(302,155)"/>
<path d="M0 0 C8.25 0 16.5 0 25 0 C25 0.66 25 1.32 25 2 C17.08 2.33 9.16 2.66 1 3 C0.67 2.01 0.34 1.02 0 0 Z " fill="#371F0E" transform="translate(156,325)"/>
<path d="M0 0 C0.33 0.66 0.66 1.32 1 2 C-0.32 3.65 -1.64 5.3 -3 7 C-3.99 6.67 -4.98 6.34 -6 6 C-4.02 4.02 -2.04 2.04 0 0 Z " fill="#181616" transform="translate(22,52)"/>
</svg>
