<svg xmlns="http://www.w3.org/2000/svg" width="512" height="512"><path fill="#252525" d="m341.242-.29 4.153-.02c3.721-.018 7.441-.023 11.162-.025 2.328 0 4.656-.005 6.983-.01 8.13-.019 16.258-.027 24.387-.026 7.57.002 15.138-.02 22.706-.051 6.515-.026 13.03-.037 19.545-.036 3.885 0 7.769-.005 11.653-.026 3.645-.02 7.289-.02 10.933-.005 1.975.003 3.95-.014 5.924-.03l3.559.025 3.092-.004C468.72.135 469.905 1.325 472 4c.501 2.644.501 2.644.502 5.692l.028 3.473-.034 3.753.005 3.896c0 2.73-.012 5.46-.034 8.189a887.391 887.391 0 0 0-.014 10.34c.051 17.995-.609 34.87-6.515 52.032l-.895 2.632C460.177 107.717 453.2 120.714 444 132l-1.287 1.618c-17.679 22.13-40.88 37.477-67.963 45.757l-2.36.724c-15.306 4.408-30.364 4.166-46.16 4.096l-7.477-.008c-6.522-.008-13.043-.027-19.565-.05-7.845-.025-15.69-.033-23.536-.045-11.884-.019-23.768-.057-35.652-.092v80l18.574-.14c3.906-.021 7.811-.04 11.717-.055 6.186-.024 12.372-.052 18.558-.107 4.993-.044 9.985-.067 14.978-.078 1.895-.007 3.791-.021 5.686-.043 19.18-.211 34.853 3.395 49.214 17.099 5.948 6.081 9.708 12.031 13.148 19.761 5.38 12 12.502 19.747 24.824 24.633 4.142 1.167 8.15 1.47 12.426 1.805 16.055 1.506 29.72 7.137 40.875 19.125 3.868 5.095 6.821 10.544 9.57 16.308 6.314 13.212 14.372 20.93 28.18 25.942 5.672 1.793 11.306 2.53 17.219 3.062C508 392 508 392 512 396v116H0c0-116 0-116 4-120 1.916-.65 1.916-.65 3.906-.871l2.237-.292 2.357-.275c13.73-1.967 24.943-6.716 34.063-17.5 3.045-4.1 5.224-8.482 7.437-13.062 6.998-14.464 16.66-24.354 32-30 5.472-1.815 10.613-2.428 16.313-2.875 12.434-1.148 22.512-4.686 30.835-14.457 2.78-4.007 4.769-8.34 6.869-12.731 2.705-5.582 5.815-10.317 9.983-14.937l1.535-1.813c8.43-9.28 20.483-15.04 32.465-18.187a122.38 122.38 0 0 1 5 0l-.035-3.025c-.117-15.35.437-30.681.962-46.02.123-3.615.242-7.23.362-10.844.234-7.037.471-14.074.711-21.111l-3.447.027c-10.796.082-21.592.141-32.389.18-5.548.021-11.097.05-16.645.095-5.369.044-10.737.067-16.106.078-2.034.007-4.068.021-6.101.043C87.466 184.72 61.076 177.147 39 158l-2.45-2.012c-14.19-12.051-24.615-28.103-30.925-45.55l-.687-1.888C4.21 106.384 3.596 104.206 3 102l-.814-2.805C-.917 86.618-.492 73.755-.446 60.88c.012-3.418-.009-6.834-.038-10.252-.023-3.286-.016-6.573-.012-9.86l-.034-3.705.028-3.432V30.62C.15 27.214 1.34 26.177 4 24c2.36-.503 2.36-.503 5.023-.508l3.07-.034 3.35.024 3.545-.02c3.21-.015 6.42-.012 9.63 0 3.376.01 6.753.001 10.13-.005 5.687-.007 11.374.002 17.061.022 6.527.021 13.053.014 19.58-.008 5.631-.018 11.263-.02 16.895-.01 3.35.006 6.7.006 10.05-.006 18.429-.05 36.398.5 53.478 8.232l2.364 1.038C183.392 44.15 203.02 64.162 215 89l.867-1.905C232.518 50.751 257.079 22.825 295 8c15.283-5.488 29.97-8.302 46.242-8.29Z"/><path fill="#9A7767" d="M240 280c20.313-.12 20.313-.12 29.016-.146 5.923-.018 11.845-.04 17.768-.08 4.779-.033 9.557-.05 14.336-.059 1.817-.005 3.634-.016 5.451-.032 15.995-.138 26.272 2.346 39.616 11.505 5.676 5.675 9.283 12.597 12.695 19.791 6.724 14.108 15.656 23.187 30.313 29.369 7.075 2.425 13.724 2.983 21.157 3.328 9.155.813 16.925 4.084 23.648 10.324l1.762 1.602c4.154 4.238 6.632 8.923 9.175 14.21 8.612 17.847 20.458 28.054 39.157 34.961 6.818 2.139 17.14 4.062 24.047 1.403 2.164-1.192 2.164-1.192 3.859-4.176v110H0V402l5 5c13.682 3.005 30.49-4.25 41.727-11.414 10.126-7.064 15.978-15.711 21.273-26.711 5.695-11.753 13.195-19.701 25.745-24.248 4.083-1.135 8.229-1.257 12.442-1.502 15.414-1.222 27.555-6.432 38.5-17.625 4.113-4.968 6.625-10.886 9.418-16.652 6.384-13.1 16.097-21.696 29.895-26.848a96.556 96.556 0 0 1 5 0c.145 16.17-.232 32.3-.784 48.459-.752 22.074-1.455 44.162-1.625 66.248a692.42 692.42 0 0 1-.082 6.122c-.31 18.22 2.815 31.506 15.514 45.382 9.43 9.148 22.383 15.068 35.573 14.963l2.365-.041c1.706 0 3.411.003 5.117.008 2.65-.002 5.296-.016 7.944-.062 16.665-.254 16.665-.254 22.712 4.663A299.52 299.52 0 0 1 280 472c2.53 1.835 5.176 3.427 7.875 5l2.162 1.26c15.881 8.971 34.57 16.066 52.963 16.74l3.602.191c17.864.68 34.473-4.443 48.336-16.003 13.337-12.885 19.959-29.677 20.437-48.125-.462-16.511-5.185-30.652-16.738-42.715-11.223-9.992-24.613-16.38-39.664-17.598-3.896-.983-6.47-2.667-8.973-5.75-1.44-2.903-2.366-5.906-3.313-9-5.42-16.054-15.257-29.328-30.687-37-15.296-6.738-31.603-8.595-47.66-3.316-9.954 3.923-17.681 8.994-25.293 16.375C241 334 241 334 240 334v-54Z"/><path fill="#5DB031" d="m343.156 15.66 3.73-.002c3.326.002 6.65.017 9.977.038 3.494.019 6.988.02 10.482.024 6.594.01 13.187.034 19.781.064 7.517.034 15.033.05 22.55.065 15.441.031 30.883.084 46.324.151.075 6.134.129 12.268.165 18.402.015 2.08.035 4.16.061 6.24.2 16.21-1.163 30.418-6.414 45.858l-.91 2.69c-10.63 30.33-33.62 54.054-62.215 68.06-5.312 2.326-10.738 4.214-16.25 6l-2.288.747c-10.339 3.204-20.553 4.303-31.343 4.23h-3.493c-3.766 0-7.532-.016-11.297-.032l-7.886-.008c-6.183-.006-12.366-.023-18.55-.043-7.047-.022-14.094-.033-21.141-.043-14.48-.021-28.96-.056-43.439-.101a338489762.584 338489762.584 0 0 1 4.38-6.634c2.508-3.663 5.282-7.08 8.12-10.491l1.821-2.2C256.551 135.246 268.66 122.353 282 111l2.723-2.387c18.43-16.041 38.768-29.435 59.686-41.968l2.892-1.739 2.599-1.552c2.202-1.315 2.202-1.315 4.1-3.354.701-5.426.701-5.426-1.625-10-3.012-1.268-5.118-1.232-8.375-1-2.55 1.032-2.55 1.032-4.95 2.605l-2.791 1.713-2.947 1.87-3.07 1.91c-23.605 14.812-46.165 31.194-66.472 50.32a141.845 141.845 0 0 1-6.645 5.832c-3.008 2.54-5.511 5.368-8.055 8.367a174.303 174.303 0 0 1-4.828 5.328c-5.772 6.121-11.195 12.328-16.208 19.093A209.643 209.643 0 0 1 225 150h-1c-1.324-37.077 7.25-69.12 32.867-96.734L259 51l1.633-1.828C274.906 33.823 295.848 23.662 316 19l3.031-.745c8.168-1.905 15.755-2.676 24.125-2.596ZM16 40c13.562-.07 27.123-.123 40.685-.155 6.298-.016 12.597-.037 18.895-.071 6.089-.033 12.177-.05 18.266-.059 2.312-.005 4.625-.016 6.937-.032 30.958-.21 57.497 6.82 80.342 28.942 18.935 19.113 27.247 43.515 27.125 70.063-.05 3.772-.13 7.541-.25 11.312-3.187-3.12-5.84-6.351-8.5-9.938-4.505-5.975-9.402-11.462-14.543-16.894-2.186-2.31-4.275-4.685-6.348-7.098-3.513-4.034-7.258-7.739-11.172-11.382l-2.114-1.971C158.835 96.738 152.056 91.287 145 86l-2.216-1.684c-9.332-7.09-18.712-13.8-28.878-19.644A105.474 105.474 0 0 1 108 61c-3.53-.548-6.851-.646-10 1.125-1.532 2.872-1.513 4.668-1 7.875 3.575 4.145 7.543 6.756 12.188 9.5C123.787 88.401 137.284 98.584 150 110l1.552 1.381c10.776 9.607 21.294 19.533 30.264 30.873 3.103 3.902 6.372 7.66 9.63 11.434 2.32 2.853 4.252 5.91 6.214 9.019l1.899 3.003L201 168c-12.858.093-25.716.164-38.574.207-5.972.021-11.944.05-17.916.095-5.777.044-11.554.067-17.332.078-2.19.007-4.38.021-6.57.043-29.634.283-54.088-6.772-75.862-27.716L42 138l-2.215-2.176C29.361 124.863 23.136 111.39 19 97l-.776-2.477c-3.037-11.01-2.556-22.007-2.412-33.335.016-2.061.03-4.122.042-6.182.032-5.002.084-10.004.146-15.006Z"/><path fill="#F5A438" d="M315.875 336.203c9.126 7.014 15.746 18.73 18.438 29.735 1.93 6.603 5.317 11.186 10.687 15.437 5.165 2.798 10.236 3.887 16 4.813 12.307 2.286 23.216 7.759 31 17.812 7.81 11.826 9.539 23.241 7.535 37.25-3.025 13.748-10.467 24.341-22.223 32.063-16.97 9.358-35.026 8.236-53.125 3.3-21.206-6.3-38.47-18.365-54.59-33.238a231.686 231.686 0 0 0-6.784-5.938C250.19 426.365 242.536 412.717 240 396c-1.247-20.288 1.239-38.73 14.813-54.746 16.583-17.087 41.693-17.48 61.062-5.05Z"/><path fill="#7EC74E" d="M354.555 15.707a5180.418 5180.418 0 0 1 25.544.087c6.302.03 12.603.044 18.905.06 12.332.032 24.664.083 36.996.146-3.126 2.084-6.001 3.244-9.512 4.574l-3.966 1.515-2.087.792c-10.707 4.067-21.332 8.199-31.732 13.01C386 37 386 37 383 37l-1.813-2c-2.074-2.26-2.074-2.26-5.187-2.5-3.033.306-3.033.306-5.375 2-2.361 3.633-1.91 6.218-1.625 10.5a421.888 421.888 0 0 1-6.25 3.625l-1.777 1.063c-1.739.976-1.739.976-4.973 2.312-2.297-.727-2.297-.727-4-2-2.807-1.404-4.884-1.22-8-1-2.55 1.032-2.55 1.032-4.95 2.605l-2.791 1.713-2.947 1.87-3.07 1.91c-23.605 14.812-46.165 31.194-66.472 50.32a141.845 141.845 0 0 1-6.645 5.832c-3.008 2.54-5.511 5.368-8.055 8.367a174.303 174.303 0 0 1-4.828 5.328c-5.772 6.121-11.195 12.328-16.208 19.093A209.643 209.643 0 0 1 225 150h-1c-1.324-37.077 7.25-69.12 32.867-96.734L259 51l1.633-1.828c13.542-14.563 33.829-25.155 53.035-29.622a113.8 113.8 0 0 0 4.963-1.297c11.883-3.054 23.737-2.632 35.924-2.546ZM208 184h16l.018 7.903c.057 24.6.13 49.2.218 73.801.045 12.647.084 25.293.11 37.94.023 11.028.057 22.056.103 33.085.024 5.834.042 11.668.049 17.503.006 5.503.026 11.005.056 16.508.009 2.009.013 4.018.011 6.027-.015 24.527 3.977 46.547 21.384 65.006A65.494 65.494 0 0 1 251 448c-15.723.377-27.31-.625-39.313-11.75-7.198-7.577-9.84-15.829-9.85-26.049l-.012-2.447a1863.92 1863.92 0 0 1-.005-8.285v-2.977c.032-30.83.995-61.649 1.848-92.464.163-5.867.319-11.734.472-17.601 1.854-70.94 1.854-70.94 3.86-102.427ZM43 40c10.041-.07 20.082-.123 30.124-.155 4.664-.016 9.328-.037 13.992-.071 4.513-.033 9.026-.05 13.538-.059 1.71-.005 3.42-.016 5.13-.032 28.83-.265 54.364 8.63 75.341 28.942 18.935 19.113 27.247 43.515 27.125 70.063-.05 3.772-.13 7.541-.25 11.312-3.187-3.12-5.84-6.351-8.5-9.938-4.505-5.975-9.402-11.462-14.543-16.894-2.186-2.31-4.275-4.685-6.348-7.098-3.513-4.034-7.258-7.739-11.172-11.382l-2.114-1.971C158.835 96.738 152.056 91.287 145 86l-2.216-1.684c-9.332-7.09-18.712-13.8-28.878-19.644A105.474 105.474 0 0 1 108 61c-2.76-.372-5.189-.179-8 0l-2 2c-3.767-.367-6.735-1.699-10.078-3.406L84.937 58.1 81.75 56.5C69.17 50.299 56.288 45.45 43 41v-1Z"/><path fill="#272626" d="M478.75 433.563c9.055 4.683 14.068 10.892 17.25 20.437.633 4.826.706 7.982-2.125 12.063-3.378 2.276-4.885 2.616-8.875 1.937-2.784-1.587-3.825-2.505-4.906-5.559l-.594-2.878c-.914-4.418-1.974-6.675-5.5-9.563-3.653-1.218-6.158-1.39-10-1-2.976 1.776-5.428 3.855-7 7-.378 5.004-.112 7.999 3 12 2.611 2.712 4.97 3.262 8.563 3.938 2.826.582 4.241.912 6.562 2.687 1.334 3.62 1.12 6.734-.125 10.375-2.85 2.763-4.813 2.978-8.75 3.438-7.73-.35-13.97-4.368-19.523-9.5-5.642-6.331-7.1-13.542-7-21.805.713-8.174 5.237-14.755 11.273-20.133 8.343-5.306 18.343-7.272 27.75-3.438ZM134.75 385.563c9.055 4.683 14.068 10.892 17.25 20.437 1.151 9.313-.789 16.229-6 24-4.63 5.49-11.3 9.329-18.434 10.348-3.37.127-5.925-.091-9.066-1.348-2.337-3.116-2.915-6.138-2.5-10 2.016-3.09 3.598-4.614 7.2-5.605 1.567-.304 3.137-.594 4.71-.872 2.943-.737 4.33-2.102 6.09-4.523 1.218-3.653 1.39-6.158 1-10-2.007-3.479-4.119-5.706-8-7-4.28-.485-6.456-.303-10.25 1.813-3.468 3.183-4.066 7.178-4.914 11.664-1.015 3.064-2.056 3.952-4.836 5.523-3.428.429-5.292.402-8.313-1.313-2.579-2.579-2.69-4.72-3-8.312.144-7.813 4.201-14.05 9.376-19.648 7.951-7.086 19.79-9.2 29.687-5.164Z"/><path fill="#292725" d="M310 368c3.46 2.787 4.468 6.17 5.875 10.25 4.007 11.554 11.09 19.25 21.813 25 5.406 2.6 10.696 3.927 16.597 4.914 2.715.836 2.715.836 4.586 2.668 1.596 3.066 1.346 5.004.758 8.328C359 421 359 421 356.937 423c-8.894 3.028-17.663-.42-25.937-4-3.908-2.051-7.46-4.37-11-7l-2.137-1.547c-9.716-7.712-18.06-20.619-20.3-32.84-.192-3.245.266-5.328 1.937-8.113 3.536-2.121 6.483-2.413 10.5-1.5Z"/><path fill="#875F47" d="M471 448c4.123 1.822 6.603 4.198 9 8 .578 2.29 1.004 4.584 1.43 6.906.778 2.857 2.253 4.318 4.57 6.094-2.732 4.728-4.931 6.926-10 9l-1.164-1.91c-2.305-2.624-3.824-2.855-7.211-3.527-5.083-1.23-7.491-2.385-10.625-6.563-1.235-3.706-1.455-6.098-1-10 4.083-6.357 7.342-8.52 15-8Z"/><path fill="#876047" d="M127 400c4.09 1.807 6.662 4.19 9 8 .628 5.026.033 7.956-3 12-3.072 3.764-6.733 4.069-11.309 5.059-3.094 1.082-4.563 2.49-6.691 4.941-4.728-2.732-6.926-4.931-9-10l1.918-1.168c2.617-2.303 2.78-3.757 3.394-7.144 1.216-4.953 2.654-7.708 6.79-10.727 3.145-1.592 5.468-1.533 8.898-.961Z"/><path fill="#272626" d="M167 464c4.09 1.807 6.662 4.19 9 8 .628 5.026.033 7.956-3 12-2.753 3.212-5.03 3.87-9.25 4.438-4.934-.576-7.548-2.72-10.75-6.438-1.235-3.706-1.455-6.098-1-10 4.083-6.357 7.342-8.52 15-8ZM55 448c4.09 1.807 6.662 4.19 9 8 .628 5.026.033 7.956-3 12-2.753 3.212-5.03 3.87-9.25 4.438-4.934-.576-7.548-2.72-10.75-6.438-1.235-3.706-1.455-6.098-1-10 4.083-6.357 7.342-8.52 15-8Z"/><path fill="#282B26" d="M376 31.375c4.148.864 5.605 2.142 8 5.625.326 2.887-.03 5.268-1 8-2.21 2.62-3.571 2.927-6.938 3.5-4.176-.682-5.571-2.13-8.062-5.5-.625-3-.625-3 0-6 2.456-3.323 3.926-4.776 8-5.625Z"/></svg>